
<svg class="plant" version="1.1" xmlns="http://www.w3.org/2000/svg" xmlns:xlink="http://www.w3.org/1999/xlink" x="0px" y="0px"
	 viewBox="0 0 50 79" enable-background="new 0 0 50 79" xml:space="preserve">
<g id="Layer_1">
	<path class="plant_1" fill="#334F24" d="M21.8,72.4c0.5,0.2,2.4-3,6.2-9.3c2.6-4.3,6.1-10.4,7.5-13.3c7-14.5,6.5-41.4,3.1-41.9
		C33.3,7,18.7,71.2,21.8,72.4z"/>
	<path class="plant_2" id="XMLID_53_" fill="#334F24" d="M22.4,67.5c0.3,0.1,1-2.6,2.4-8.1c0.9-3.7,2.1-8.9,2.5-11.4c2.1-12.3-1.9-33.8-3.9-33.9
		C20.2,14,20.5,66.9,22.4,67.5z"/>
	<path class="plant_3" fill="#334F24" d="M24,73.1c-0.5,0.2-2.4-3-6.2-9.3c-2.6-4.3-6.1-10.4-7.5-13.3C3.3,36,3.8,9.1,7.2,8.6
		C12.5,7.7,27.1,71.9,24,73.1z"/>
</g>
</svg>
