
<svg version="1.1" class="tree" id="Layer_1" xmlns="http://www.w3.org/2000/svg" xmlns:xlink="http://www.w3.org/1999/xlink" x="0px" y="0px"
	 viewBox="-565 -14.7 147.6 228.7" enable-background="new -565 -14.7 147.6 228.7" xml:space="preserve">
<g id="Layer_1_1_">
	<g id="XMLID_45_">
		<g id="XMLID_46_">
			<polygon id="XMLID_49_" fill="#334F24" points="-430.9,167.3 -433,168.7 -427.1,177.1 -430.8,177.1 -434.4,171.9 -436.4,173.3 
				-433.8,177.1 -439.4,177.1 -417.4,210 -429.9,210 -442.9,191.2 -445,192.6 -432.9,210 -436.5,210 -446.4,195.7 -448.4,197.1 
				-439.5,210 -540.1,210 -532.7,199.4 -534.8,198 -543.1,210 -546.7,210 -536.2,194.9 -538.2,193.4 -549.7,210 -561.4,210 
				-539.3,177.1 -545.3,177.1 -539.7,169 -541.7,167.6 -548.3,177.1 -551.9,177.1 -543.1,164.5 -545.1,163.1 -554.9,177.1 
				-561.4,177.1 -536.3,139.8 -542.7,139.8 -537.9,132.9 -540,131.5 -545.7,139.8 -549.4,139.8 -541.4,128.4 -543.4,127 
				-552.4,139.8 -561.4,139.8 -536.1,105.1 -539.8,105.1 -533,95.3 -536,95.3 -542.8,105.1 -546.4,105.1 -539.6,95.3 -542.6,95.3 
				-549.4,105.1 -554.7,105.1 -523.9,62.2 -527.8,62.2 -522.5,54.5 -524.5,53.1 -530.8,62.2 -534.7,62.2 -489.4,-11 -444,62.2 
				-448.4,62.2 -456.1,51.1 -458.1,52.5 -451.4,62.2 -454.8,62.2 -424,105.1 -429.2,105.1 -438.9,91.2 -440.9,92.6 -432.2,105.1 
				-435.9,105.1 -442.3,95.7 -444.4,97.2 -438.9,105.1 -442.7,105.1 -417.4,139.8 -425.3,139.8 -432.7,129.2 -434.7,130.7 
				-428.3,139.8 -431.9,139.8 -436.1,133.8 -438.1,135.2 -434.9,139.8 -442.4,139.8 -417.4,177.1 -424.1,177.1 			"/>
		</g>
	</g>
</g>
<g class="red">
	<path id="XMLID_6_" fill="#EE3126" d="M-515.5,129.9L-515.5,129.9c-2.3,0-4.1-1.9-4.1-4.1l0,0c0-2.3,1.8-4.1,4.1-4.1l0,0
		c2.3,0,4.1,1.9,4.1,4.1l0,0C-511.3,128.1-513.2,129.9-515.5,129.9z"/>
	<path id="XMLID_7_" fill="#EE3126" d="M-468.5,174.3L-468.5,174.3c-1.8,0-3.2-1.4-3.2-3.2l0,0c0-1.8,1.4-3.1,3.2-3.1l0,0
		c1.8,0,3.1,1.4,3.1,3.1l0,0C-465.4,172.9-466.8,174.3-468.5,174.3z"/>
	<path id="XMLID_9_" fill="#EE3126" d="M-482.7,89L-482.7,89c-3.5,0-6.3-2.8-6.3-6.3l0,0c0-3.5,2.8-6.3,6.3-6.3l0,0
		c3.5,0,6.3,2.8,6.3,6.3l0,0C-476.3,86.1-479.2,89-482.7,89z"/>
</g>
<g class="blue">
	<path id="XMLID_2_" fill="#204285" d="M-516.7,83.1L-516.7,83.1c-2.3,0-4.1-1.8-4.1-4.1l0,0c0-2.3,1.8-4.1,4.1-4.1l0,0
		c2.3,0,4.1,1.8,4.1,4.1l0,0C-512.6,81.2-514.4,83.1-516.7,83.1z"/>
	<path id="XMLID_5_" fill="#204285" d="M-464.5,117.8L-464.5,117.8c-2.3,0-4.1-1.8-4.1-4.1l0,0c0-2.3,1.8-4.1,4.1-4.1l0,0
		c2.3,0,4.1,1.8,4.1,4.1l0,0C-460.4,115.9-462.2,117.8-464.5,117.8z"/>
	<path id="XMLID_8_" fill="#204285" d="M-518.9,183.8L-518.9,183.8c-3.5,0-6.3-2.9-6.3-6.3l0,0c0-3.5,2.8-6.3,6.3-6.3l0,0
		c3.5,0,6.3,2.8,6.3,6.3l0,0C-512.6,180.9-515.4,183.8-518.9,183.8z"/>
</g>
<g class="yellow">
	<path id="XMLID_4_" fill="#DFE780" d="M-478.6,51.6L-478.6,51.6c-2.2,0-4-1.8-4-4l0,0c0-2.2,1.8-4,4-4l0,0c2.2,0,4,1.8,4,4l0,0
		C-474.7,49.8-476.4,51.6-478.6,51.6z"/>
	<path id="XMLID_10_" fill="#DFE780" d="M-489,148.3L-489,148.3c-3.5,0-6.3-2.8-6.3-6.3l0,0c0-3.5,2.8-6.3,6.3-6.3l0,0
		c3.5,0,6.3,2.9,6.3,6.3l0,0C-482.7,145.5-485.5,148.3-489,148.3z"/>
</g>
</svg>
