
<svg version="1.1" class="water" xmlns="http://www.w3.org/2000/svg" xmlns:xlink="http://www.w3.org/1999/xlink" x="0px" y="0px"
	 viewBox="0 0 17.4 139.3" enable-background="new 0 0 17.4 139.3" xml:space="preserve">
<g id="Layer_6">
</g>
<g id="Layer_9">
</g>
<g id="Layer_13">
</g>
<g id="Layer_14">
</g>
<g id="Layer_11">
</g>
<g id="Layer_7">
</g>
<g id="Layer_2">
</g>
<g id="Layer_5">
</g>
<g id="Layer_3">
	<g id="Layer_4">
	</g>
</g>
<g id="Layer_1">
	<path id="XMLID_64_" fill="#26381C" d="M499.4,94.5"/>
</g>
<g id="Layer_8">
</g>
<g id="Layer_12">
</g>
<g id="Layer_17">
	<path id="XMLID_103_" class="wave" fill="#D5EEF2" d="M4.2,51.6c-0.5,3.7-1.6,7.3-1.8,11c-0.3,4.9,1,9.7,1.9,14.5c2.5,14.6,0.6,29.5-1.4,44.2
		c-0.6,4.8-1.3,9.5-1.9,14.3c4.1-27.4,5-55.2,2.7-82.8c-0.4-4.8-0.9-9.6-0.5-14.3c0.4-5.5,3-12.5,0.9-17.8
		C-1.4,27,5.4,43.3,4.2,51.6z"/>
	<path fill="#D5EEF2" d="M9.1,2.4C11.4,3.9,12,7,12.3,9.7c0.2,2.6-0.1,5.8-2.6,6.7c0.2-2.1,0.4-4.1,0.6-6.2c0.1-1.2,0.2-2.4-0.1-3.5
		C9.6,4.9,8,3.4,7.8,1.4"/>
	<path id="XMLID_113_" class="wave" fill="#D5EEF2" d="M1.8,1.9c1.4,1,1.9,2.9,2.2,4.5c0.3,1.5,0.3,3.4-0.9,3.8C3.1,9,3,7.8,3,6.6
		c0-0.7,0-1.4-0.3-2.1C2.3,3.3,1.3,2.3,1,1.1"/>
	<path id="XMLID_104_" class="wave" fill="#D5EEF2" d="M8.3,39.9c0.7,0.2,1.5-0.5,1.6-1.3c0.2-1.2-0.2-2.5-0.1-3.7c0.1-1.1,0.5-2.2,0.4-3.4
		c-0.1-1.1-0.8-3.1-1.8-3.6C8.1,28.5,10,40.5,8.3,39.9z"/>
	<path id="XMLID_105_" class="wave" fill="#D5EEF2" d="M10.3,45.2c-0.3,2.1-0.5,4.4,0.3,6.4c-0.1-0.9-0.1-1.8,0.1-2.7c0.1-0.5,0.3-1.1,0.4-1.6
		c0.1-0.6,0-1.2-0.5-1.5c-0.1-0.1-0.3-0.2-0.5-0.1"/>
	<path id="XMLID_106_" class="wave" fill="#D5EEF2" d="M8.1,53.7c0.1,2.2,0.3,4.5,0.4,6.7c0.1,1,0.1,2.1,0.4,3.1c0.3,1.1,0.8,2.1,1.1,3.2
		c0.6,2.8-0.7,5.7-0.7,8.5c0,2.4,0.8,4.7,0.4,7c-0.5-4.9-0.9-9.9-1.4-14.8c-0.2-1.6-0.3-3.3-0.2-4.9c0-0.9,0.1-1.8,0.5-2.6
		c0.3-0.7,0.8-1.3,0.9-2.1C9.5,57,9,56.1,8.3,56.2"/>
	<path id="XMLID_107_" class="wave" fill="#D5EEF2" d="M12.8,80.3c0.2,0.8,0.5,1.7,0.5,2.6c0,0.8-0.1,1.5-0.2,2.2c-1.2,7-1.5,14.1-0.9,21.1
		c0.2,2.5,0.5,5.2-0.7,7.5c-0.1-4.7-0.2-9.3-0.2-14c-0.1-4.4-0.1-8.8,0.1-13.2c0.1-2.6,0.4-5.1,0.6-7.7c0.2-1.6,1.2-4.5,0.1-5.8
		C11.7,75.2,12.2,78,12.8,80.3z"/>
	<path id="XMLID_108_" class="wave" fill="#D5EEF2" d="M15.2,121.5c0.1,2.3,0.1,4.7,0.6,7c0.4,2,1.1,4.2,0.2,6.1c-0.5,1-1.5,2.1-1.1,3.2
		c0.6,0.2,1.2-0.4,1.3-1c0.2-0.6,0-1.2-0.1-1.8c-1.6-7.3,0.8-14.9-0.1-22.3c-0.2-1.4-0.5-2.8-0.6-4.3c-0.2-3.2,1.2-8.3-0.8-11.1
		c-0.5,3.7,0.1,8.1,0.2,11.9C15,113.4,15.1,117.4,15.2,121.5z"/>
</g>
<g id="Layer_15">
</g>
<g id="Layer_16">
	<g id="Layer_10">
	</g>
</g>
<g id="Layer_18">
</g>
<g id="Layer_19">
</g>
</svg>
